<svg xmlns="http://www.w3.org/2000/svg" xmlns:xlink="http://www.w3.org/1999/xlink" width="67" height="19" viewBox="0 0 67 19" fill="none">
<path d="M5.01802 6.232L4.85002 6.232C3.60402 6.232 2.91102 6.855 2.91102 6.855C2.21802 7.478 2.21802 9.06 2.21802 9.06C2.21802 9.578 2.31602 9.781 2.31602 9.781C2.41402 9.984 2.41402 10.012 2.41402 10.012C1.65802 10.012 1.28702 9.697 1.28702 9.697C0.916016 9.382 0.916016 8.654 0.916016 8.654C0.916016 7.66 1.40602 6.841 1.40602 6.841C1.89602 6.022 2.96702 5.518 2.96702 5.518C4.03802 5.014 5.69002 5.014 5.69002 5.014C6.61402 5.014 7.67802 5.182 7.67802 5.182C8.57402 5.336 9.27402 5.336 9.27402 5.336C10.17 5.336 10.898 5.042 10.898 5.042C10.87 5.952 10.436 6.386 10.436 6.386C10.002 6.82 9.14802 6.82 9.14802 6.82C8.70002 6.82 8.25202 6.75 8.25202 6.75C7.80402 6.68 6.97802 6.512 6.97802 6.512L5.04602 15.5L3.03002 15.5L5.01802 6.232ZM8.95202 15.584C8.28002 15.584 7.86702 15.164 7.86702 15.164C7.45402 14.744 7.45402 13.904 7.45402 13.904C7.45402 13.554 7.56602 12.994 7.56602 12.994L8.51802 8.5L10.534 8.5L9.52602 13.26C9.48402 13.47 9.48402 13.652 9.48402 13.652C9.48402 14.226 9.90402 14.226 9.90402 14.226C10.296 14.226 10.576 13.897 10.576 13.897C10.856 13.568 11.024 12.994 11.024 12.994L11.976 8.5L13.992 8.5L12.984 13.26C12.928 13.47 12.928 13.708 12.928 13.708C12.928 13.988 13.061 14.107 13.061 14.107C13.194 14.226 13.502 14.226 13.502 14.226C13.894 14.226 14.181 13.89 14.181 13.89C14.468 13.554 14.636 12.994 14.636 12.994L15.224 12.994C14.706 14.506 13.943 15.045 13.943 15.045C13.18 15.584 12.41 15.584 12.41 15.584C11.808 15.584 11.451 15.248 11.451 15.248C11.094 14.912 11.024 14.254 11.024 14.254C10.548 15.024 10.023 15.304 10.023 15.304C9.49802 15.584 8.95202 15.584 8.95202 15.584ZM18.066 5.98C17.128 6.372 16.617 7.156 16.617 7.156C16.106 7.94 16.106 9.046 16.106 9.046C16.106 9.564 16.204 9.767 16.204 9.767C16.302 9.97 16.302 9.998 16.302 9.998C15.546 9.998 15.175 9.683 15.175 9.683C14.804 9.368 14.804 8.64 14.804 8.64C14.804 7.744 15.539 6.897 15.539 6.897C16.274 6.05 17.422 5.525 17.422 5.525C18.57 5 19.718 5 19.718 5C19.914 5 20.278 5.028 20.278 5.028L19.382 9.2L21.44 9.2L22.336 5.028L24.352 5.028L22.126 15.5L20.11 15.5L21.23 10.236L19.172 10.236L18.052 15.5L16.036 15.5L18.066 5.98ZM25.626 15.584C24.828 15.584 24.296 15.038 24.296 15.038C23.764 14.492 23.764 13.33 23.764 13.33C23.764 12.294 24.177 11.153 24.177 11.153C24.59 10.012 25.409 9.221 25.409 9.221C26.228 8.43 27.362 8.43 27.362 8.43C27.936 8.43 28.216 8.626 28.216 8.626C28.496 8.822 28.496 9.144 28.496 9.144L28.496 9.242L28.65 8.5L30.666 8.5L29.658 13.26C29.602 13.47 29.602 13.708 29.602 13.708C29.602 14.31 30.176 14.31 30.176 14.31C30.568 14.31 30.855 13.946 30.855 13.946C31.142 13.582 31.31 12.994 31.31 12.994L31.898 12.994C31.38 14.506 30.617 15.045 30.617 15.045C29.854 15.584 29.084 15.584 29.084 15.584C28.496 15.584 28.139 15.255 28.139 15.255C27.782 14.926 27.712 14.296 27.712 14.296C27.306 14.87 26.809 15.227 26.809 15.227C26.312 15.584 25.626 15.584 25.626 15.584ZM26.536 14.226C26.886 14.226 27.229 13.897 27.229 13.897C27.572 13.568 27.698 12.994 27.698 12.994L28.37 9.83C28.37 9.648 28.23 9.473 28.23 9.473C28.09 9.298 27.796 9.298 27.796 9.298C27.236 9.298 26.788 9.949 26.788 9.949C26.34 10.6 26.088 11.517 26.088 11.517C25.836 12.434 25.836 13.134 25.836 13.134C25.836 13.834 26.039 14.03 26.039 14.03C26.242 14.226 26.536 14.226 26.536 14.226ZM33.354 15.556C32.318 15.556 31.716 15.024 31.716 15.024C31.114 14.492 31.114 13.344 31.114 13.344C31.114 12.392 31.506 11.23 31.506 11.23C31.898 10.068 32.766 9.221 32.766 9.221C33.634 8.374 34.95 8.374 34.95 8.374C36.742 8.374 36.742 10.614 36.742 10.614L36.742 10.628C36.784 10.642 36.896 10.642 36.896 10.642C37.358 10.642 37.96 10.397 37.96 10.397C38.562 10.152 39.052 9.802 39.052 9.802L39.178 10.18C38.772 10.614 38.121 10.915 38.121 10.915C37.47 11.216 36.7 11.342 36.7 11.342C36.588 12.616 36.126 13.568 36.126 13.568C35.664 14.52 34.936 15.038 34.936 15.038C34.208 15.556 33.354 15.556 33.354 15.556ZM33.914 14.296C34.25 14.296 34.586 13.911 34.586 13.911C34.922 13.526 35.174 12.861 35.174 12.861C35.426 12.196 35.538 11.384 35.538 11.384C35.16 11.3 35.16 10.796 35.16 10.796C35.16 10.222 35.594 10.04 35.594 10.04C35.566 9.578 35.454 9.403 35.454 9.403C35.342 9.228 35.062 9.228 35.062 9.228C34.6 9.228 34.166 9.9 34.166 9.9C33.732 10.572 33.466 11.51 33.466 11.51C33.2 12.448 33.2 13.162 33.2 13.162C33.2 13.834 33.354 14.065 33.354 14.065C33.508 14.296 33.914 14.296 33.914 14.296ZM41.642 6.232L41.474 6.232C40.228 6.232 39.535 6.855 39.535 6.855C38.842 7.478 38.842 9.06 38.842 9.06C38.842 9.578 38.94 9.781 38.94 9.781C39.038 9.984 39.038 10.012 39.038 10.012C38.282 10.012 37.911 9.697 37.911 9.697C37.54 9.382 37.54 8.654 37.54 8.654C37.54 7.66 38.03 6.841 38.03 6.841C38.52 6.022 39.591 5.518 39.591 5.518C40.662 5.014 42.314 5.014 42.314 5.014C43.238 5.014 44.302 5.182 44.302 5.182C45.198 5.336 45.898 5.336 45.898 5.336C46.794 5.336 47.522 5.042 47.522 5.042C47.494 5.952 47.06 6.386 47.06 6.386C46.626 6.82 45.772 6.82 45.772 6.82C45.324 6.82 44.876 6.75 44.876 6.75C44.428 6.68 43.602 6.512 43.602 6.512L41.67 15.5L39.654 15.5L41.642 6.232ZM46.528 7.744C46.066 7.744 45.744 7.422 45.744 7.422C45.422 7.1 45.422 6.638 45.422 6.638C45.422 6.176 45.744 5.847 45.744 5.847C46.066 5.518 46.528 5.518 46.528 5.518C46.99 5.518 47.319 5.847 47.319 5.847C47.648 6.176 47.648 6.638 47.648 6.638C47.648 7.1 47.319 7.422 47.319 7.422C46.99 7.744 46.528 7.744 46.528 7.744ZM45.576 15.584C44.904 15.584 44.491 15.164 44.491 15.164C44.078 14.744 44.078 13.904 44.078 13.904C44.078 13.554 44.19 12.994 44.19 12.994L45.142 8.5L47.158 8.5L46.15 13.26C46.094 13.47 46.094 13.708 46.094 13.708C46.094 13.988 46.227 14.107 46.227 14.107C46.36 14.226 46.668 14.226 46.668 14.226C47.074 14.226 47.424 13.883 47.424 13.883C47.774 13.54 47.928 12.994 47.928 12.994L48.516 12.994C47.998 14.506 47.186 15.045 47.186 15.045C46.374 15.584 45.576 15.584 45.576 15.584ZM49.608 15.584C48.81 15.584 48.278 15.038 48.278 15.038C47.746 14.492 47.746 13.33 47.746 13.33C47.746 12.294 48.159 11.153 48.159 11.153C48.572 10.012 49.391 9.221 49.391 9.221C50.21 8.43 51.344 8.43 51.344 8.43C51.918 8.43 52.198 8.626 52.198 8.626C52.478 8.822 52.478 9.144 52.478 9.144L52.478 9.242L52.632 8.5L54.648 8.5L53.64 13.26C53.584 13.47 53.584 13.708 53.584 13.708C53.584 14.31 54.158 14.31 54.158 14.31C54.55 14.31 54.837 13.946 54.837 13.946C55.124 13.582 55.292 12.994 55.292 12.994L55.88 12.994C55.362 14.506 54.599 15.045 54.599 15.045C53.836 15.584 53.066 15.584 53.066 15.584C52.478 15.584 52.121 15.255 52.121 15.255C51.764 14.926 51.694 14.296 51.694 14.296C51.288 14.87 50.791 15.227 50.791 15.227C50.294 15.584 49.608 15.584 49.608 15.584ZM50.518 14.226C50.868 14.226 51.211 13.897 51.211 13.897C51.554 13.568 51.68 12.994 51.68 12.994L52.352 9.83C52.352 9.648 52.212 9.473 52.212 9.473C52.072 9.298 51.778 9.298 51.778 9.298C51.218 9.298 50.77 9.949 50.77 9.949C50.322 10.6 50.07 11.517 50.07 11.517C49.818 12.434 49.818 13.134 49.818 13.134C49.818 13.834 50.021 14.03 50.021 14.03C50.224 14.226 50.518 14.226 50.518 14.226ZM60.346 15.584C59.492 15.584 59.093 15.129 59.093 15.129C58.694 14.674 58.694 14.002 58.694 14.002C58.694 13.708 58.764 13.337 58.764 13.337C58.834 12.966 58.911 12.616 58.911 12.616C58.988 12.266 59.016 12.168 59.016 12.168C59.128 11.678 59.226 11.202 59.226 11.202C59.324 10.726 59.324 10.432 59.324 10.432C59.324 9.718 58.82 9.718 58.82 9.718C58.456 9.718 58.176 10.075 58.176 10.075C57.896 10.432 57.728 11.006 57.728 11.006L56.776 15.5L54.76 15.5L56.244 8.5L58.26 8.5L58.106 9.228C58.806 8.444 59.744 8.444 59.744 8.444C60.458 8.444 60.878 8.836 60.878 8.836C61.298 9.228 61.298 10.026 61.298 10.026C61.298 10.432 61.2 10.929 61.2 10.929C61.102 11.426 60.92 12.14 60.92 12.14C60.808 12.574 60.717 12.987 60.717 12.987C60.626 13.4 60.626 13.638 60.626 13.638C60.626 13.918 60.752 14.072 60.752 14.072C60.878 14.226 61.186 14.226 61.186 14.226C61.606 14.226 61.858 13.925 61.858 13.925C62.11 13.624 62.362 12.994 62.362 12.994L62.95 12.994C62.432 14.534 61.753 15.059 61.753 15.059C61.074 15.584 60.346 15.584 60.346 15.584Z" fill-rule="evenodd"  fill="#FFFFFF" >
</path>
</svg>
